<?xml version="1.0" encoding="UTF-8" standalone="no"?>
<!DOCTYPE svg PUBLIC "-//W3C//DTD SVG 1.1//EN" "http://www.w3.org/Graphics/SVG/1.1/DTD/svg11.dtd">
<svg xmlns="http://www.w3.org/2000/svg" version="1.1" viewBox="0.00 0.00 991.00 376.00">
<g stroke-width="2.00" fill="none" stroke-linecap="butt">
<path stroke="#000000" stroke-opacity="0.573" vector-effect="non-scaling-stroke" d="
  M 424.90 216.11
  C 422.26 217.72 421.30 220.54 419.94 222.21
  C 416.71 226.18 413.97 230.82 410.24 234.31
  C 406.95 237.41 403.47 241.38 400.71 243.96
  C 391.30 252.75 385.38 257.90 375.41 264.56
  C 372.62 266.43 371.22 268.72 367.88 269.97
  Q 363.81 271.48 360.18 273.89
  Q 357.62 275.59 352.27 277.31
  C 347.89 278.71 343.51 282.32 338.79 283.46
  Q 323.19 287.23 305.92 284.34
  C 300.54 283.43 292.72 275.65 291.30 271.73
  Q 290.56 269.69 289.41 268.27
  C 286.13 264.21 285.44 260.54 284.08 256.13
  C 281.49 247.66 271.88 251.87 266.30 246.72
  C 262.30 243.03 257.35 243.49 253.17 239.59"
/>
<path stroke="#000000" stroke-opacity="0.573" vector-effect="non-scaling-stroke" d="
  M 234.58 250.27
  C 235.33 254.84 235.80 258.69 237.96 263.14
  C 240.98 269.34 247.28 295.96 236.25 297.98
  Q 231.25 298.90 226.17 298.75
  Q 225.70 298.73 225.31 298.47
  C 217.39 293.16 214.43 287.54 214.34 278.03
  Q 214.34 277.52 214.08 277.08
  Q 209.43 269.26 209.22 260.30
  C 209.07 253.73 208.01 248.31 207.47 242.19
  C 207.04 237.41 202.45 238.65 200.20 235.15
  A 0.48 0.48 0.0 0 0 199.32 235.51
  C 200.40 240.65 195.84 244.35 191.55 245.80
  Q 191.07 245.96 190.59 245.82
  Q 185.18 244.33 182.56 240.99"
/>
<path stroke="#000000" stroke-opacity="0.573" vector-effect="non-scaling-stroke" d="
  M 167.03 243.65
  Q 160.14 260.02 142.61 260.29"
/>
<path stroke="#000000" stroke-opacity="0.573" vector-effect="non-scaling-stroke" d="
  M 116.40 261.21
  Q 112.34 267.15 110.19 274.08
  C 108.32 280.12 103.69 285.39 100.73 290.27
  Q 95.41 299.06 90.20 307.94"
/>
<path stroke="#000000" stroke-opacity="0.573" vector-effect="non-scaling-stroke" d="
  M 70.51 327.80
  Q 66.78 327.02 62.49 328.70
  Q 58.09 330.42 56.76 330.56
  C 45.98 331.73 33.53 323.72 28.70 314.27
  C 24.42 305.87 21.59 300.04 20.27 290.75
  Q 20.01 288.91 18.36 286.57
  C 16.09 283.35 15.13 279.27 14.75 275.50
  Q 14.03 268.54 11.24 262.17
  C 9.69 258.62 9.21 255.30 8.11 251.68"
/>
<path stroke="#000000" stroke-opacity="0.573" vector-effect="non-scaling-stroke" d="
  M 521.67 375.50
  Q 521.81 372.70 520.54 372.48
  Q 515.92 368.38 510.08 366.42
  C 508.11 365.76 505.77 362.27 504.02 360.82
  C 500.60 357.97 494.99 353.08 493.58 348.79
  Q 492.79 346.41 491.97 345.74
  Q 486.07 340.94 484.94 333.35
  Q 484.86 332.81 484.47 332.43
  Q 478.88 326.91 478.42 319.02
  Q 478.39 318.51 478.03 318.14
  Q 471.90 312.04 471.94 303.38
  C 471.96 298.36 467.38 297.67 466.73 293.53
  Q 465.98 288.73 465.17 283.94
  C 464.11 277.62 460.99 271.65 459.76 265.81
  C 457.47 254.98 457.98 244.61 453.74 233.51
  Q 452.65 230.69 451.96 219.78"
/>
</g>
<path fill="#000000" d="
  M 479.56 0.00
  L 482.06 0.00
  Q 487.63 1.63 493.17 3.46
  Q 495.50 4.23 497.27 5.91
  C 507.10 15.20 518.62 26.77 525.24 38.60
  C 528.04 43.60 532.52 45.71 532.55 52.00
  A 1.60 1.59 -64.7 0 0 532.91 53.01
  Q 538.92 60.46 540.03 70.07
  A 1.33 1.30 -70.8 0 0 540.39 70.84
  C 546.39 77.18 544.86 82.66 546.71 89.80
  Q 547.13 91.42 549.36 94.99
  Q 553.31 101.31 552.73 109.03
  C 552.22 115.77 558.09 124.46 558.52 129.74
  Q 559.24 138.85 560.16 147.96
  C 560.53 151.62 561.86 155.95 562.12 160.08
  Q 562.25 162.15 563.16 164.16
  Q 565.62 169.62 565.75 176.25
  Q 565.88 182.43 566.96 194.04
  C 567.55 200.30 576.72 209.08 583.02 209.30
  Q 588.22 209.48 588.49 204.33
  Q 589.11 192.86 592.02 181.76
  C 592.56 179.67 593.96 178.38 594.59 176.98
  Q 596.33 173.07 596.76 168.79
  C 597.28 163.73 600.75 161.00 602.96 156.74
  Q 604.80 153.19 607.53 150.26
  C 610.23 147.38 610.41 144.00 613.55 141.23
  C 624.10 131.92 632.01 124.35 647.00 123.45
  C 653.67 123.05 660.23 126.89 664.58 131.66
  C 665.99 133.20 667.59 134.53 669.49 134.34
  C 680.23 133.23 678.36 145.93 675.92 151.88
  C 674.77 154.69 671.34 156.39 670.76 159.51
  C 669.94 163.99 669.70 169.01 667.49 173.08
  Q 663.39 180.60 663.09 191.06
  Q 662.86 199.50 659.22 211.03
  Q 658.59 213.01 658.36 215.15
  C 657.53 222.82 654.78 232.49 666.66 231.90
  C 668.96 231.78 670.29 231.10 671.30 228.84
  Q 673.47 223.97 678.32 221.40
  A 0.81 0.81 0.0 0 0 678.75 220.65
  C 678.43 214.22 683.92 212.51 685.42 206.67
  Q 687.24 199.59 688.40 190.02
  C 688.89 185.99 690.57 181.78 690.82 177.29
  Q 691.22 170.13 691.30 169.40
  C 691.96 163.71 691.56 157.51 693.47 152.31
  C 695.25 147.44 699.16 138.33 705.52 141.20
  A 1.20 1.20 0.0 0 1 706.15 141.86
  C 707.68 145.89 706.01 151.65 706.00 156.00
  Q 705.99 172.62 706.04 189.25
  C 706.05 194.34 711.51 195.28 714.07 191.32
  Q 719.87 182.31 720.71 172.06
  A 1.98 1.93 65.7 0 1 721.04 171.15
  C 724.51 166.05 725.95 159.92 728.30 155.19
  C 731.30 149.18 733.79 143.77 737.52 139.31
  Q 739.27 137.21 740.89 134.75
  C 748.33 123.35 762.85 113.92 772.35 130.52
  C 773.91 133.24 773.55 148.16 778.54 146.94
  Q 779.51 146.70 780.44 145.42
  Q 790.15 132.00 804.41 123.62
  C 814.22 117.85 824.46 124.07 822.79 135.78
  C 822.22 139.86 819.25 144.55 818.13 147.53
  C 815.64 154.11 815.63 162.79 815.99 170.28
  C 816.28 176.45 818.52 178.98 822.77 183.00
  C 828.07 188.00 832.56 188.28 836.48 181.51
  Q 842.40 171.30 851.96 159.32
  C 857.52 152.36 864.96 144.56 872.52 140.55
  C 876.05 138.68 878.91 135.91 882.76 134.51
  C 887.77 132.69 899.31 128.70 904.71 130.27
  C 909.27 131.61 912.50 134.52 913.28 139.47
  C 914.20 145.26 913.61 152.69 908.80 156.76
  Q 908.42 157.09 908.26 157.57
  C 904.27 169.67 890.78 180.63 880.04 187.01
  Q 867.89 194.24 850.98 198.43
  Q 847.97 199.18 846.17 200.71
  C 836.81 208.69 838.74 219.04 838.77 230.01
  C 838.79 236.55 844.58 244.77 851.57 245.15
  Q 862.04 245.73 872.37 244.01
  C 876.85 243.27 880.76 240.18 884.78 238.08
  C 898.47 230.92 909.36 216.86 918.14 204.51
  C 920.78 200.79 921.91 196.74 923.63 192.53
  C 927.06 184.17 927.96 174.51 928.92 165.60
  C 929.26 162.47 933.59 156.59 935.75 152.51
  Q 941.20 142.22 952.96 133.75
  Q 960.86 128.07 970.53 130.08
  C 977.42 131.50 977.09 141.29 975.65 146.27
  C 973.93 152.21 967.29 158.50 962.94 163.22
  C 960.72 165.62 959.44 168.64 957.44 171.32
  C 954.88 174.75 953.88 176.80 953.82 180.75
  C 953.72 187.54 953.25 194.96 954.26 201.59
  C 955.29 208.33 959.10 213.43 962.00 219.16
  C 963.72 222.55 966.41 225.19 968.35 228.62
  C 972.16 235.36 977.04 241.25 981.05 247.89
  C 982.93 251.01 984.62 254.99 986.55 258.49
  C 991.57 267.66 991.64 277.93 988.53 287.81
  C 987.46 291.21 977.69 297.28 974.40 297.93
  C 958.48 301.11 938.69 301.74 923.63 294.58
  C 918.68 292.23 914.11 292.05 909.43 288.30
  C 906.48 285.92 903.19 284.85 900.14 282.22
  Q 896.38 278.98 892.38 275.98
  Q 891.92 275.63 892.26 275.17
  Q 893.11 274.00 892.70 272.49
  A 1.19 1.19 0.0 0 1 893.83 270.99
  C 900.92 270.86 904.03 275.19 909.87 277.72
  C 918.04 281.27 925.78 286.26 934.86 286.87
  Q 942.18 287.35 949.49 287.86
  C 965.63 288.98 977.14 279.93 966.33 263.62
  Q 957.01 249.55 945.99 236.75
  C 943.33 233.65 942.60 228.46 939.72 225.05
  C 935.46 220.01 934.46 215.10 932.90 209.46
  A 2.03 2.02 86.0 0 0 931.23 208.00
  Q 925.53 207.24 922.54 212.36
  C 912.49 229.61 899.73 242.61 884.99 255.82
  C 877.45 262.57 868.13 264.85 858.78 267.69
  C 848.85 270.70 842.81 268.09 832.51 263.89
  Q 828.61 262.30 826.58 259.18
  C 824.66 256.20 818.47 246.23 818.49 242.00
  C 818.53 235.34 817.93 228.32 819.53 222.11
  C 821.73 213.58 825.48 208.58 822.65 199.28
  A 0.92 0.90 -82.8 0 0 822.26 198.77
  L 812.76 193.04
  Q 812.30 192.76 812.06 192.28
  C 810.49 189.07 810.07 183.07 806.56 181.79
  A 1.99 1.98 -68.7 0 0 804.05 182.90
  C 801.07 190.05 800.57 197.78 799.62 205.33
  C 799.18 208.85 797.26 210.64 797.26 214.57
  Q 797.21 239.03 797.28 263.48
  C 797.31 273.82 798.51 282.54 800.77 292.03
  Q 801.62 295.61 801.86 299.58
  C 802.18 304.96 803.45 310.18 802.96 315.32
  C 802.56 319.52 802.12 327.45 799.35 330.61
  C 795.18 335.37 786.23 335.05 780.73 333.31
  C 776.92 332.10 774.15 327.13 771.52 324.20
  C 768.25 320.55 767.87 314.31 767.72 309.67
  C 767.37 298.85 766.61 288.13 766.71 277.30
  C 766.81 266.37 768.35 254.39 769.50 242.95
  C 770.02 237.79 770.90 231.35 773.10 226.61
  C 775.68 221.04 776.18 216.27 777.24 208.25
  Q 777.70 204.79 781.68 196.43
  C 783.18 193.27 782.99 187.87 785.25 183.75
  C 787.76 179.19 788.89 174.86 790.33 170.41
  C 791.37 167.20 793.45 165.15 795.29 162.26
  C 796.70 160.05 796.65 157.62 796.79 155.09
  Q 796.82 154.60 797.13 154.21
  C 799.72 150.96 802.08 147.46 801.11 144.01
  A 0.99 0.98 60.8 0 0 799.50 143.55
  L 789.92 152.40
  A 1.03 1.01 -17.9 0 0 789.60 153.01
  Q 789.37 154.72 788.65 155.66
  C 783.73 162.04 781.97 167.22 778.41 173.14
  Q 775.77 177.52 774.45 180.86
  Q 768.27 196.51 761.93 212.12
  C 760.99 214.42 760.80 217.29 759.49 219.74
  C 756.35 225.65 752.48 238.67 742.88 235.63
  C 737.30 233.85 734.04 227.79 737.23 222.11
  Q 739.42 218.23 739.68 213.74
  Q 739.71 213.24 740.02 212.85
  C 741.22 211.37 741.91 208.67 742.43 207.58
  Q 748.29 195.24 754.10 182.88
  C 755.62 179.65 755.09 176.30 756.76 172.70
  C 760.18 165.37 763.08 157.03 762.05 148.83
  C 761.64 145.56 761.61 139.03 760.13 136.33
  A 1.09 1.06 83.0 0 0 759.47 135.80
  C 749.62 133.04 741.33 149.76 738.33 156.68
  Q 738.12 157.16 737.68 157.43
  Q 736.47 158.18 736.17 159.23
  Q 733.47 168.81 730.10 178.17
  Q 727.99 184.01 726.81 189.60
  C 724.69 199.66 720.59 211.20 720.32 221.35
  C 720.03 232.11 722.04 243.79 717.50 250.96
  C 713.56 257.21 701.10 261.51 697.76 251.91
  C 696.43 248.08 694.56 245.46 693.98 241.52
  C 693.04 235.08 691.37 229.47 691.71 222.81
  C 691.85 220.11 691.61 217.79 690.22 215.81
  C 688.82 213.84 687.11 214.65 686.37 216.61
  C 684.37 221.84 682.05 224.92 679.76 228.80
  Q 678.30 231.29 676.72 232.83
  C 670.24 239.15 668.86 245.13 657.73 243.27
  C 646.88 241.47 654.77 232.36 648.68 227.34
  C 643.33 222.93 642.89 232.29 641.21 234.69
  C 636.96 240.75 629.99 250.75 621.59 254.92
  C 616.92 257.24 608.42 256.46 603.18 256.47
  C 597.30 256.48 594.45 249.94 590.52 246.13
  Q 590.15 245.77 590.06 245.28
  C 589.33 241.53 589.22 236.63 587.04 233.44
  C 584.92 230.32 583.35 225.80 580.45 223.48
  Q 576.56 220.35 572.83 216.84
  A 1.32 1.31 -23.6 0 0 571.90 216.48
  C 567.78 216.52 566.96 219.73 566.98 223.42
  Q 567.15 270.15 566.73 316.89
  C 566.67 323.60 561.79 327.97 561.19 334.53
  C 560.48 342.37 559.90 347.53 556.15 353.08
  C 553.70 356.70 552.17 361.40 549.41 364.66
  C 547.67 366.71 539.46 375.55 535.51 375.62
  Q 530.70 375.69 525.94 376.00
  L 524.44 376.00
  Q 523.59 375.54 521.67 375.50
  Q 521.81 372.70 520.54 372.48
  Q 515.92 368.38 510.08 366.42
  C 508.11 365.76 505.77 362.27 504.02 360.82
  C 500.60 357.97 494.99 353.08 493.58 348.79
  Q 492.79 346.41 491.97 345.74
  Q 486.07 340.94 484.94 333.35
  Q 484.86 332.81 484.47 332.43
  Q 478.88 326.91 478.42 319.02
  Q 478.39 318.51 478.03 318.14
  Q 471.90 312.04 471.94 303.38
  C 471.96 298.36 467.38 297.67 466.73 293.53
  Q 465.98 288.73 465.17 283.94
  C 464.11 277.62 460.99 271.65 459.76 265.81
  C 457.47 254.98 457.98 244.61 453.74 233.51
  Q 452.65 230.69 451.96 219.78
  C 448.09 218.12 454.89 209.21 460.03 211.17
  C 467.36 213.97 469.71 236.49 470.41 243.70
  C 470.96 249.33 475.22 252.67 476.23 258.26
  C 477.11 263.15 477.09 266.90 480.15 271.12
  Q 482.14 273.85 482.65 275.33
  C 483.77 278.62 483.62 281.85 485.36 284.81
  C 487.02 287.65 489.00 289.91 489.56 293.32
  C 490.27 297.65 492.48 300.28 496.10 303.22
  A 1.42 1.39 -76.7 0 1 496.60 304.05
  Q 497.58 309.08 500.78 312.85
  C 505.88 318.86 509.50 326.92 517.94 329.01
  C 524.13 330.54 530.18 327.34 533.20 321.89
  C 535.01 318.63 534.42 314.47 536.29 311.12
  Q 540.12 304.27 540.78 301.26
  C 541.79 296.67 540.90 287.71 541.80 281.09
  C 543.06 271.78 542.61 261.84 542.41 251.29
  C 542.23 241.41 541.35 227.88 541.20 216.12
  C 541.09 207.15 540.00 200.17 537.48 192.28
  C 535.76 186.86 532.73 184.10 528.96 179.55
  Q 518.78 167.25 516.32 162.94
  Q 512.78 156.74 508.32 151.18
  Q 507.36 149.98 506.98 148.48
  Q 505.50 142.53 500.26 139.37
  Q 499.82 139.11 499.73 138.62
  C 498.77 133.48 495.41 131.47 493.76 127.63
  C 491.76 122.98 492.27 118.71 487.21 115.59
  Q 486.86 115.37 486.74 114.97
  Q 486.32 113.49 486.55 111.94
  A 1.94 1.90 38.5 0 0 486.42 110.91
  C 483.21 103.53 478.51 98.14 478.07 89.43
  A 1.60 1.58 -66.6 0 0 477.71 88.51
  Q 471.89 81.60 471.35 72.49
  C 471.18 69.78 470.52 68.30 469.01 65.69
  Q 464.74 58.27 464.72 49.66
  Q 464.72 45.56 464.26 42.89
  Q 462.16 30.59 462.61 18.13
  C 462.74 14.77 464.76 12.25 465.11 8.66
  C 465.87 0.70 473.72 0.69 479.56 0.00
  Z
  M 479.69 30.69
  C 476.58 34.97 479.26 37.94 480.89 41.75
  C 483.79 48.58 482.71 55.98 486.19 62.79
  C 488.97 68.23 490.26 71.39 491.05 76.85
  C 491.51 80.00 494.16 81.08 495.27 83.60
  Q 497.53 88.71 496.89 94.57
  A 0.99 0.99 0.0 0 0 497.24 95.44
  C 501.37 98.85 502.90 102.20 504.14 107.27
  C 505.31 112.05 509.61 115.27 511.06 120.19
  Q 512.75 125.96 516.18 130.37
  C 519.19 134.25 517.64 138.62 521.27 142.24
  Q 523.32 144.29 524.00 145.87
  C 524.91 148.01 525.17 151.37 526.47 153.04
  C 527.93 154.92 531.18 155.47 532.71 153.53
  C 535.03 150.61 534.04 139.64 533.41 136.05
  C 531.61 125.76 526.20 117.64 526.80 106.57
  A 1.42 1.41 -61.6 0 0 526.53 105.65
  Q 521.96 99.33 520.80 91.72
  C 519.87 85.59 515.41 83.06 514.35 77.98
  C 513.63 74.49 513.55 71.31 512.04 68.24
  C 509.99 64.08 506.74 61.07 506.54 55.93
  C 506.38 52.09 503.32 50.66 501.77 47.63
  Q 497.54 39.40 491.97 32.03
  C 489.25 28.43 482.86 26.32 479.69 30.69
  Z
  M 651.56 133.71
  C 639.65 126.66 632.77 139.38 625.17 146.43
  C 621.46 149.88 622.01 154.72 616.47 158.02
  A 1.13 1.12 -11.8 0 0 615.93 158.84
  C 615.26 163.83 615.14 167.30 610.84 171.19
  A 1.73 1.67 77.1 0 0 610.35 172.00
  C 608.54 179.11 606.82 186.18 604.82 193.24
  C 603.59 197.59 602.63 204.01 602.68 207.71
  C 602.74 213.17 606.62 216.22 607.56 221.39
  C 608.37 225.85 616.73 227.19 620.13 226.70
  C 633.32 224.78 636.31 213.25 643.77 204.77
  Q 644.10 204.40 644.18 203.90
  Q 645.47 196.03 651.08 190.41
  A 1.48 1.43 67.8 0 0 651.49 189.39
  Q 651.47 182.99 653.01 180.04
  Q 657.50 171.42 658.51 161.76
  C 659.52 152.05 660.47 138.99 651.56 133.71
  Z
  M 860.15 168.15
  C 854.87 173.63 848.49 179.38 851.62 186.68
  Q 851.81 187.12 852.26 187.29
  Q 856.51 188.89 859.98 186.53
  C 863.30 184.28 866.94 183.97 870.42 181.77
  C 875.23 178.74 880.23 176.20 884.34 172.38
  Q 887.57 169.38 890.69 166.25
  C 894.01 162.91 896.34 158.71 899.41 154.90
  C 901.80 151.93 901.55 147.76 901.07 144.24
  C 900.44 139.62 893.67 141.18 891.18 142.41
  C 886.36 144.80 881.53 146.62 877.63 150.46
  Q 868.77 159.21 860.15 168.15
  Z"
/>
<path fill="#000000" d="
  M 424.90 216.11
  C 422.26 217.72 421.30 220.54 419.94 222.21
  C 416.71 226.18 413.97 230.82 410.24 234.31
  C 406.95 237.41 403.47 241.38 400.71 243.96
  C 391.30 252.75 385.38 257.90 375.41 264.56
  C 372.62 266.43 371.22 268.72 367.88 269.97
  Q 363.81 271.48 360.18 273.89
  Q 357.62 275.59 352.27 277.31
  C 347.89 278.71 343.51 282.32 338.79 283.46
  Q 323.19 287.23 305.92 284.34
  C 300.54 283.43 292.72 275.65 291.30 271.73
  Q 290.56 269.69 289.41 268.27
  C 286.13 264.21 285.44 260.54 284.08 256.13
  C 281.49 247.66 271.88 251.87 266.30 246.72
  C 262.30 243.03 257.35 243.49 253.17 239.59
  C 250.43 236.86 247.16 235.13 244.80 232.09
  C 242.22 228.75 238.59 226.76 236.34 223.57
  C 235.05 221.72 233.42 217.54 230.34 218.71
  A 1.17 1.16 0.4 0 0 229.69 219.34
  C 226.97 225.70 230.02 230.75 233.15 236.71
  C 235.04 240.31 234.45 246.22 234.58 250.27
  C 235.33 254.84 235.80 258.69 237.96 263.14
  C 240.98 269.34 247.28 295.96 236.25 297.98
  Q 231.25 298.90 226.17 298.75
  Q 225.70 298.73 225.31 298.47
  C 217.39 293.16 214.43 287.54 214.34 278.03
  Q 214.34 277.52 214.08 277.08
  Q 209.43 269.26 209.22 260.30
  C 209.07 253.73 208.01 248.31 207.47 242.19
  C 207.04 237.41 202.45 238.65 200.20 235.15
  A 0.48 0.48 0.0 0 0 199.32 235.51
  C 200.40 240.65 195.84 244.35 191.55 245.80
  Q 191.07 245.96 190.59 245.82
  Q 185.18 244.33 182.56 240.99
  Q 178.35 233.18 176.69 224.64
  A 0.50 0.50 0.0 0 0 175.85 224.38
  Q 174.75 225.45 174.07 227.29
  Q 172.02 232.81 167.03 243.65
  Q 160.14 260.02 142.61 260.29
  Q 131.46 258.47 124.96 249.74
  C 124.04 248.50 122.97 247.98 121.65 247.37
  Q 121.19 247.15 120.73 247.39
  C 117.81 248.93 117.40 255.82 116.40 261.21
  Q 112.34 267.15 110.19 274.08
  C 108.32 280.12 103.69 285.39 100.73 290.27
  Q 95.41 299.06 90.20 307.94
  Q 81.45 318.92 70.51 327.80
  Q 66.78 327.02 62.49 328.70
  Q 58.09 330.42 56.76 330.56
  C 45.98 331.73 33.53 323.72 28.70 314.27
  C 24.42 305.87 21.59 300.04 20.27 290.75
  Q 20.01 288.91 18.36 286.57
  C 16.09 283.35 15.13 279.27 14.75 275.50
  Q 14.03 268.54 11.24 262.17
  C 9.69 258.62 9.21 255.30 8.11 251.68
  Q 6.80 233.34 4.01 215.00
  C 3.76 213.34 2.50 212.20 2.43 210.23
  C 2.06 199.12 2.15 188.14 0.89 177.07
  Q -0.32 166.35 1.61 155.71
  C 2.67 149.90 3.09 145.04 3.89 139.65
  C 4.30 136.93 5.97 134.13 6.15 131.18
  C 6.67 123.05 7.29 111.70 13.67 106.42
  C 19.41 101.68 26.68 108.46 26.81 114.33
  Q 27.26 133.69 27.45 153.06
  C 27.56 163.30 28.23 174.12 30.08 184.13
  C 32.53 197.46 34.15 206.46 34.61 218.41
  C 34.91 226.50 38.58 234.31 39.83 242.48
  Q 41.70 254.81 46.03 266.49
  Q 50.00 277.21 50.70 278.67
  C 54.74 287.14 62.52 293.42 72.21 293.51
  C 81.09 293.60 89.22 283.37 94.30 276.70
  C 97.77 272.14 98.61 266.94 102.54 262.20
  C 105.60 258.52 106.90 252.34 109.22 247.92
  C 111.31 243.94 112.11 239.73 114.03 235.62
  C 115.35 232.81 116.31 227.98 115.63 225.74
  Q 110.04 207.25 112.11 188.06
  Q 112.36 185.73 112.30 179.36
  C 112.24 173.28 116.66 145.43 122.48 142.08
  C 128.41 138.66 136.97 139.32 137.56 147.95
  C 138.53 162.30 140.86 178.77 138.00 192.91
  Q 136.79 198.91 136.73 205.04
  C 136.68 210.05 132.87 212.43 132.16 217.26
  C 131.30 223.16 131.33 229.13 134.11 234.55
  Q 136.02 238.28 137.06 242.36
  C 139.20 250.79 152.94 250.24 153.62 241.37
  C 153.75 239.74 154.00 237.64 155.03 236.49
  C 160.36 230.59 158.25 220.81 158.58 215.26
  Q 159.73 196.34 160.63 177.42
  C 160.82 173.30 163.39 169.64 164.64 165.71
  Q 165.01 164.57 165.71 159.71
  C 166.65 153.25 172.26 143.64 180.29 148.92
  C 182.29 150.24 182.97 152.51 182.98 155.02
  Q 183.02 170.68 183.00 186.34
  C 182.99 188.96 181.16 191.49 181.40 193.76
  Q 182.14 200.94 181.94 208.14
  C 181.81 212.77 183.69 215.43 184.30 219.66
  C 185.41 227.50 186.98 234.98 196.99 234.23
  C 204.29 233.67 205.09 220.74 204.43 215.86
  C 203.11 206.19 204.01 196.41 203.54 186.67
  Q 203.32 182.15 204.91 177.91
  C 206.29 174.24 205.64 173.22 204.81 169.69
  C 204.23 167.24 205.42 163.23 205.73 161.28
  C 207.78 148.21 208.78 135.17 210.16 122.03
  C 210.76 116.34 213.33 111.72 214.66 106.29
  Q 215.33 103.56 215.48 98.02
  C 215.66 91.04 216.71 84.65 219.20 77.93
  C 220.50 74.41 222.39 70.41 222.65 66.65
  C 222.78 64.80 222.52 62.97 223.32 61.29
  C 224.77 58.24 231.86 48.15 236.16 52.42
  C 238.74 54.99 238.87 57.27 237.94 60.91
  C 236.37 67.10 234.04 74.02 234.30 80.44
  Q 234.79 92.58 232.24 104.48
  Q 232.01 105.57 231.83 108.62
  C 231.63 112.17 230.20 115.50 229.26 118.88
  C 227.57 124.98 228.51 131.13 228.06 137.40
  Q 227.08 151.18 227.45 165.00
  Q 227.56 169.36 229.44 173.30
  C 231.05 176.70 233.79 174.13 234.73 171.87
  C 236.36 167.96 236.77 163.90 238.70 159.91
  C 239.57 158.11 241.59 157.20 242.22 155.40
  C 246.50 143.04 261.93 129.63 272.24 123.01
  C 275.86 120.68 284.47 118.69 287.15 123.62
  C 290.68 130.11 280.95 136.22 276.33 138.48
  Q 264.83 144.10 257.59 152.84
  C 253.78 157.43 250.33 161.08 247.51 165.91
  C 244.85 170.47 241.55 173.62 241.42 179.56
  Q 241.16 191.61 241.27 203.56
  A 6.20 6.13 25.0 0 0 242.74 207.52
  C 245.89 211.23 248.60 215.36 252.84 218.10
  C 260.89 223.30 264.71 224.88 274.25 225.94
  Q 285.02 227.13 286.73 217.59
  Q 287.15 215.29 288.07 213.66
  C 292.02 206.65 291.74 199.07 295.42 191.86
  Q 298.05 186.69 299.70 181.12
  C 300.99 176.80 303.25 174.03 305.38 170.25
  C 310.08 161.89 317.11 154.06 324.06 147.50
  C 327.44 144.31 331.74 141.45 335.62 138.47
  C 340.08 135.04 345.02 132.63 349.87 129.55
  C 357.23 124.85 372.98 124.37 380.11 128.86
  C 389.70 134.90 386.96 144.03 386.14 154.21
  C 385.84 157.96 381.48 163.64 379.70 167.24
  C 377.93 170.81 374.89 172.52 373.07 175.93
  Q 368.96 183.62 361.41 187.85
  C 358.53 189.47 356.41 192.46 353.53 193.37
  Q 348.81 194.87 345.05 198.04
  Q 343.30 199.52 341.44 200.14
  Q 334.21 202.56 327.56 206.23
  C 324.27 208.04 321.20 207.75 317.64 208.19
  C 311.59 208.93 310.57 214.61 308.67 220.20
  Q 308.65 220.25 306.21 226.42
  C 303.31 233.74 303.33 241.79 306.40 249.17
  C 311.65 261.75 317.85 266.71 332.25 265.08
  Q 335.11 264.75 338.50 263.03
  C 343.11 260.68 347.95 259.32 351.85 255.87
  C 360.54 248.20 368.50 240.76 375.77 231.19
  Q 385.77 218.03 397.59 204.35
  C 400.73 200.71 404.11 196.72 408.66 195.46
  Q 416.04 193.42 422.87 198.16
  C 428.22 201.88 426.62 207.99 426.58 213.45
  Q 426.58 213.94 426.28 214.33
  L 424.90 216.11
  Z
  M 350.70 150.45
  Q 341.57 159.08 333.00 168.31
  C 330.25 171.26 329.78 174.63 325.88 177.13
  Q 325.46 177.40 325.30 177.88
  Q 323.36 184.03 319.38 188.99
  C 315.48 193.86 316.87 205.37 325.63 199.36
  C 334.08 193.56 342.84 187.72 350.46 180.86
  C 355.39 176.41 360.04 170.74 364.67 165.49
  Q 366.49 163.43 367.39 160.88
  C 368.68 157.22 371.91 150.30 370.95 146.63
  C 368.37 136.74 354.39 146.95 350.70 150.45
  Z"
/>
<path fill="#030302" fill-opacity="0.145" d="
  M 424.90 216.11
  C 425.65 222.09 423.62 225.38 419.36 230.01
  Q 415.42 234.30 411.27 239.51
  Q 407.50 244.26 401.95 247.41
  Q 401.56 247.63 401.51 248.08
  Q 401.43 248.74 400.68 248.90
  A 1.49 1.48 -74.6 0 0 399.90 249.35
  Q 396.98 252.60 393.95 255.73
  C 393.04 256.66 392.51 258.11 390.87 258.70
  Q 390.42 258.87 390.12 259.24
  Q 388.50 261.24 386.31 262.49
  Q 382.57 264.62 382.00 265.03
  Q 379.01 267.18 377.16 268.16
  C 373.58 270.04 372.08 272.92 368.05 274.99
  C 364.52 276.79 361.33 279.57 356.94 280.66
  C 354.43 281.28 351.03 283.24 348.95 284.79
  C 344.31 288.25 339.89 287.65 335.15 288.98
  C 328.45 290.85 320.82 294.70 313.29 291.70
  C 308.74 289.88 302.66 289.01 298.85 286.15
  Q 295.91 283.94 293.28 281.37
  A 1.91 1.85 14.4 0 1 292.79 280.57
  Q 292.44 279.50 291.20 278.54
  Q 288.51 276.45 287.16 272.48
  A 1.34 1.34 0.0 0 0 286.59 271.75
  C 283.17 269.57 282.81 265.25 282.37 261.58
  Q 282.32 261.14 281.98 260.86
  Q 281.47 260.43 280.76 259.53
  Q 278.17 256.20 273.84 255.69
  Q 273.37 255.63 273.02 255.31
  C 271.19 253.63 268.54 253.57 266.24 252.87
  Q 265.76 252.73 265.40 252.39
  C 264.42 251.47 263.07 251.68 261.92 251.16
  C 258.92 249.82 256.34 246.76 253.03 246.70
  A 1.98 1.96 59.9 0 1 252.11 246.45
  C 250.75 245.70 249.46 245.47 248.06 244.60
  Q 244.78 242.57 242.46 245.83
  A 1.42 1.41 60.3 0 0 242.20 246.79
  C 242.87 254.06 244.57 260.68 244.96 268.29
  C 245.10 271.00 246.54 273.69 246.94 275.94
  C 247.85 281.09 248.89 288.59 246.71 293.38
  C 242.15 303.45 235.79 302.72 226.25 302.44
  Q 223.29 302.35 221.06 300.44
  C 215.42 295.59 209.65 291.47 210.22 284.57
  Q 210.26 284.04 209.97 283.58
  L 208.75 281.67
  Q 208.57 281.38 208.56 281.03
  L 208.39 276.04
  Q 208.38 275.71 208.04 275.74
  Q 207.87 275.75 207.72 275.75
  Q 207.40 275.75 207.46 275.43
  Q 207.71 274.19 206.64 273.61
  Q 206.25 273.40 206.25 272.95
  L 206.25 261.97
  Q 206.25 261.45 205.95 261.03
  C 204.79 259.41 204.13 258.11 204.31 255.94
  Q 204.75 250.70 200.99 246.97
  Q 200.63 246.61 200.12 246.59
  Q 192.39 246.29 184.68 246.07
  C 182.11 246.00 180.58 244.90 178.54 243.61
  C 176.22 242.15 174.14 241.93 173.05 244.79
  Q 172.89 245.21 172.53 245.49
  C 170.94 246.72 170.29 248.60 169.03 249.90
  C 166.68 252.33 164.72 255.04 161.94 256.93
  Q 157.08 260.23 151.96 263.10
  C 149.92 264.24 148.28 265.69 145.75 265.52
  C 139.09 265.08 124.02 263.50 119.95 266.77
  Q 115.57 270.28 113.16 275.25
  C 111.09 279.53 109.41 282.19 107.42 285.72
  C 105.46 289.21 102.78 292.50 100.64 296.06
  C 99.99 297.16 98.40 298.14 98.03 299.83
  Q 97.93 300.29 97.65 300.67
  C 95.88 303.03 94.03 308.73 90.20 307.94
  Q 95.41 299.06 100.73 290.27
  C 103.69 285.39 108.32 280.12 110.19 274.08
  Q 112.34 267.15 116.40 261.21
  C 119.37 263.31 122.60 261.08 126.06 261.38
  C 130.85 261.79 135.97 261.24 140.59 262.38
  Q 143.72 263.14 146.56 261.38
  A 0.51 0.50 30.2 0 0 146.31 260.45
  L 142.61 260.29
  Q 160.14 260.02 167.03 243.65
  Q 169.63 242.45 171.75 240.34
  C 173.94 238.17 176.04 237.10 178.49 239.44
  Q 178.86 239.79 179.36 239.75
  L 180.24 239.69
  A 0.75 0.74 71.9 0 1 180.94 240.05
  Q 181.99 241.83 182.56 240.99
  Q 185.18 244.33 190.59 245.82
  Q 191.07 245.96 191.55 245.80
  C 195.84 244.35 200.40 240.65 199.32 235.51
  A 0.48 0.48 0.0 0 1 200.20 235.15
  C 202.45 238.65 207.04 237.41 207.47 242.19
  C 208.01 248.31 209.07 253.73 209.22 260.30
  Q 209.43 269.26 214.08 277.08
  Q 214.34 277.52 214.34 278.03
  C 214.43 287.54 217.39 293.16 225.31 298.47
  Q 225.70 298.73 226.17 298.75
  Q 231.25 298.90 236.25 297.98
  C 247.28 295.96 240.98 269.34 237.96 263.14
  C 235.80 258.69 235.33 254.84 234.58 250.27
  L 235.01 244.30
  Q 235.04 243.83 235.51 243.78
  C 238.92 243.42 242.07 238.90 244.24 236.97
  Q 244.65 236.61 245.17 236.76
  C 247.67 237.48 248.52 239.07 250.55 240.08
  Q 253.10 241.35 253.17 239.59
  C 257.35 243.49 262.30 243.03 266.30 246.72
  C 271.88 251.87 281.49 247.66 284.08 256.13
  C 285.44 260.54 286.13 264.21 289.41 268.27
  Q 290.56 269.69 291.30 271.73
  C 292.72 275.65 300.54 283.43 305.92 284.34
  Q 323.19 287.23 338.79 283.46
  C 343.51 282.32 347.89 278.71 352.27 277.31
  Q 357.62 275.59 360.18 273.89
  Q 363.81 271.48 367.88 269.97
  C 371.22 268.72 372.62 266.43 375.41 264.56
  C 385.38 257.90 391.30 252.75 400.71 243.96
  C 403.47 241.38 406.95 237.41 410.24 234.31
  C 413.97 230.82 416.71 226.18 419.94 222.21
  C 421.30 220.54 422.26 217.72 424.90 216.11
  Z"
/>
<path fill="#030302" fill-opacity="0.145" d="
  M 451.96 219.78
  Q 452.65 230.69 453.74 233.51
  C 457.98 244.61 457.47 254.98 459.76 265.81
  C 460.99 271.65 464.11 277.62 465.17 283.94
  Q 465.98 288.73 466.73 293.53
  C 467.38 297.67 471.96 298.36 471.94 303.38
  Q 471.90 312.04 478.03 318.14
  Q 478.39 318.51 478.42 319.02
  Q 478.88 326.91 484.47 332.43
  Q 484.86 332.81 484.94 333.35
  Q 486.07 340.94 491.97 345.74
  Q 492.79 346.41 493.58 348.79
  C 494.99 353.08 500.60 357.97 504.02 360.82
  C 505.77 362.27 508.11 365.76 510.08 366.42
  Q 515.92 368.38 520.54 372.48
  Q 521.81 372.70 521.67 375.50
  Q 516.62 375.82 512.16 372.83
  C 510.28 371.56 508.54 371.00 506.55 370.15
  Q 506.08 369.95 505.90 369.48
  Q 504.89 366.93 501.72 365.75
  Q 500.66 365.36 500.23 363.84
  Q 500.10 363.40 499.77 363.07
  C 497.70 360.97 491.30 355.73 491.23 352.96
  A 1.23 1.22 22.2 0 0 490.87 352.12
  C 487.01 348.15 482.96 344.77 483.02 339.96
  Q 483.02 339.46 482.75 339.05
  Q 481.77 337.58 480.87 336.05
  C 478.54 332.11 475.97 330.71 475.25 325.67
  C 474.92 323.38 473.68 322.50 473.05 320.48
  Q 472.38 318.33 470.79 316.75
  Q 470.42 316.38 470.35 315.88
  Q 469.72 311.26 467.50 307.13
  Q 467.30 306.76 467.28 306.34
  Q 467.23 305.38 466.30 303.99
  Q 463.60 300.00 462.51 294.29
  C 462.15 292.40 460.82 289.59 461.00 287.03
  Q 461.03 286.51 460.84 286.03
  L 456.44 275.25
  Q 456.27 274.81 456.39 274.36
  C 456.96 272.28 455.84 270.85 455.65 269.22
  Q 455.37 266.85 455.21 264.47
  Q 455.19 264.11 454.85 264.02
  Q 454.69 263.98 454.55 263.89
  Q 454.46 263.82 454.41 263.69
  Q 453.22 260.20 453.19 256.56
  C 453.17 253.05 451.91 250.10 452.32 246.47
  A 1.59 1.49 -57.7 0 0 452.15 245.58
  Q 449.87 241.32 450.53 236.53
  Q 450.60 236.02 450.39 235.56
  Q 447.21 228.49 449.03 220.81
  A 1.07 0.64 -66.0 0 1 450.31 219.91
  Q 450.54 220.20 451.96 219.78
  Z"
/>
<path fill="#030302" fill-opacity="0.145" d="
  M 8.11 251.68
  C 9.21 255.30 9.69 258.62 11.24 262.17
  Q 14.03 268.54 14.75 275.50
  C 15.13 279.27 16.09 283.35 18.36 286.57
  Q 20.01 288.91 20.27 290.75
  C 21.59 300.04 24.42 305.87 28.70 314.27
  C 33.53 323.72 45.98 331.73 56.76 330.56
  Q 58.09 330.42 62.49 328.70
  Q 66.78 327.02 70.51 327.80
  Q 68.74 327.72 68.29 329.66
  A 1.48 1.46 78.2 0 1 67.75 330.50
  C 59.64 336.69 50.28 338.68 41.79 331.74
  C 40.32 330.53 38.76 330.99 37.60 329.69
  Q 33.03 324.61 27.83 320.18
  C 26.89 319.39 26.51 318.45 25.49 317.69
  Q 25.08 317.38 25.00 316.87
  Q 24.34 312.75 20.77 310.58
  A 1.42 1.41 8.0 0 1 20.15 309.76
  Q 17.67 300.89 15.38 292.05
  C 14.85 290.04 14.99 288.78 15.30 286.80
  Q 15.37 286.34 15.04 286.01
  L 12.59 283.62
  Q 12.25 283.29 12.25 282.82
  L 12.25 278.78
  Q 12.25 278.28 11.91 277.92
  Q 10.91 276.82 11.13 275.07
  Q 11.17 274.71 10.81 274.74
  Q 10.64 274.75 10.50 274.75
  Q 10.25 274.75 10.25 274.50
  L 10.25 268.78
  Q 10.25 268.30 9.91 267.96
  C 6.86 264.87 6.33 263.06 5.21 258.94
  A 0.81 0.81 0.0 0 1 5.42 258.16
  Q 6.75 256.85 6.95 254.99
  Q 7.01 254.48 7.52 254.37
  Q 8.78 254.12 8.11 251.68
  Z"
/>
<path fill="#000000" d="
  M 427.32 363.31
  A 0.10 0.10 0.0 0 1 427.29 363.16
  Q 427.47 362.94 427.76 362.94
  C 428.44 362.94 431.38 364.60 432.50 364.88
  A 0.34 0.34 0.0 0 1 432.71 365.38
  L 432.45 365.80
  Q 432.38 365.92 432.25 365.86
  L 427.32 363.31
  Z"
/>
</svg>
